<?xml version="1.0" standalone="no"?>
<!DOCTYPE svg PUBLIC "-//W3C//DTD SVG 1.0//EN" "http://www.w3.org/TR/2001/REC-SVG-20010904/DTD/svg10.dtd">
<svg xmlns="http://www.w3.org/2000/svg" xmlns:xlink="http://www.w3.org/1999/xlink" id="body_1" width="500" height="500">

<g transform="matrix(0.22460938 0 0 0.22460938 78 43)">
    <path d="M512 256C 512 326.69244 487.00647 387.03223 437.01935 437.01935C 387.03223 487.00647 326.69244 512 256 512C 185.30756 512 124.96779 487.00647 74.98067 437.01935C 24.993557 387.03223 0 326.69244 0 256C 0 185.30756 24.993557 124.96779 74.98067 74.98067C 124.96779 24.993557 185.30756 0 256 0C 326.69244 0 387.03223 24.993557 437.01935 74.98067C 487.00647 124.96779 512 185.30756 512 256C 512 258.979 511.94803 261.9571 511.84406 264.93427" stroke="none" fill="#000000" fill-rule="nonzero" />
	<g>
        <path d="M213.12 319.776L99.872 270.544L99.872 243.28L213.12 194.272L213.12 226.384L134.112 256.592L213.12 287.92L213.12 319.776z" stroke="none" fill="#FFFFFF" fill-rule="nonzero" />
        <path d="M223.6 341.408L264.512 170.57599L288.288 170.57599L246.928 341.408L223.6 341.408z" stroke="none" fill="#FFFFFF" fill-rule="nonzero" />
        <path d="M298.768 319.904L298.768 288L377.872 256.896L298.768 226.144L298.768 194.48L412.128 243.48799L412.128 270.52798L298.768 319.904z" stroke="none" fill="#FFFFFF" fill-rule="nonzero" />
	</g>
	<g>
	</g>
	<g>
	</g>
	<g>
	</g>
	<g>
	</g>
	<g>
	</g>
	<g>
	</g>
	<g>
	</g>
	<g>
	</g>
	<g>
	</g>
	<g>
	</g>
	<g>
	</g>
	<g>
	</g>
	<g>
	</g>
	<g>
	</g>
	<g>
	</g>
</g>
</svg>