<?xml version="1.0" standalone="no"?>
<!DOCTYPE svg PUBLIC "-//W3C//DTD SVG 1.0//EN" "http://www.w3.org/TR/2001/REC-SVG-20010904/DTD/svg10.dtd">
<svg xmlns="http://www.w3.org/2000/svg" xmlns:xlink="http://www.w3.org/1999/xlink" id="body_1" width="500" height="500">

<g transform="matrix(3.5 0 0 3.5 80 47)">
    <path d="M12 1.64C 11.998 1.64 11.996 1.64 11.994 1.64C 10.521 1.64 9.303 2.399 8.755 3.6399999L8.755 3.6399999L8.275001 3.6399999C 8.272 3.6399999 8.269001 3.6399999 8.266001 3.6399999C 6.995001 3.6399999 5.788001 4.065 4.868001 4.8389997C 3.892 5.659 3.354 6.79 3.352 8.021C 3.351 9.016 3.878 10.118 4.377 10.812C 2.1539998 11.582001 0.6429999 13.445 0.63999987 15.5C 0.63699985 17.546 2.1469998 19.41 4.3739996 20.187C 3.8679996 20.879 3.3299994 21.975 3.3289995 22.953001C 3.3259995 25.379002 5.5439997 27.356 8.275999 27.361L8.275999 27.361L8.755999 27.361C 9.298999 28.599 10.519999 29.359 11.999998 29.361C 12.001998 29.361 12.003998 29.361 12.006998 29.361C 13.978998 29.361 15.357998 27.98 15.360998 26.001L15.360998 26.001L15.360998 5C 15.363 3.025 13.982 1.643 12 1.64zM12 18.64C 11.647 18.64 11.36 18.352999 11.36 18C 11.36 17.647001 11.646999 17.36 12 17.36C 12.353001 17.36 12.64 17.647001 12.64 18C 12.64 18.352999 12.353 18.64 12 18.64zM14.64 13.64L12.360001 13.64L12.360001 7.305C 12.935 7.146 13.360001 6.6239996 13.360001 6C 13.360001 5.25 12.750001 4.64 12.000001 4.64C 11.250001 4.64 10.64 5.25 10.64 6C 10.64 6.625 11.065001 7.146 11.64 7.305L11.64 7.305L11.64 13.639999L10 13.639999C 9.999 13.639999 9.999 13.639999 9.998 13.639999C 9.2 13.64 8.641 14.199 8.64 15L8.64 15L8.64 15.64L6.305 15.64C 6.146 15.065001 5.6239996 14.64 5 14.64C 4.25 14.64 3.6399999 15.25 3.6399999 16C 3.6399999 16.75 4.25 17.36 5 17.36C 5.625 17.36 6.147 16.934 6.305 16.36L6.305 16.36L8.64 16.36L8.64 22.194C 8.065001 22.353 7.6400003 22.875 7.6400003 23.5C 7.6400003 24.25 8.25 24.86 9 24.86C 9.75 24.86 10.36 24.25 10.36 23.5C 10.36 22.875 9.934999 22.353 9.36 22.194L9.36 22.194L9.36 15C 9.361 14.599 9.599 14.359 9.999 14.359L9.999 14.359L10 14.359L14.639999 14.359L14.639999 25.998001C 14.636999 27.454 13.731999 28.458 12.36 28.608002L12.36 28.608002L12.36 19.305C 12.934999 19.146 13.36 18.624 13.36 17.999C 13.36 17.249 12.75 16.639 12 16.639C 11.25 16.639 10.64 17.249 10.64 17.999C 10.64 18.624 11.065001 19.146 11.64 19.305L11.64 19.305L11.64 28.615002C 10.537001 28.501001 9.689 27.873001 9.34 26.880001C 9.289 26.736 9.153 26.64 9 26.64L9 26.64L8.276 26.64C 6.24 26.637 4.046 25.227 4.048 22.953999C 4.0499997 21.987999 4.762 20.744999 5.2539997 20.255C 5.3459997 20.164 5.3809996 20.029999 5.3469996 19.904999C 5.3129997 19.779999 5.2149997 19.682999 5.0899997 19.651C 2.8909998 19.085 1.3569996 17.377998 1.3599997 15.499999C 1.3629997 13.623999 2.8819995 11.926999 5.0549994 11.358999L5.0549994 11.358999L7.6949997 11.358999C 7.8539996 11.933999 8.375999 12.358999 9 12.358999C 9.75 12.358999 10.36 11.749 10.36 10.999C 10.36 10.249 9.75 9.64 9 9.64C 8.375 9.64 7.854 10.065001 7.695 10.64L7.695 10.64L5.162 10.64C 4.685 10.099 4.07 8.949 4.071 8.022C 4.073 7.006 4.52 6.072 5.332 5.39C 6.1109996 4.7349997 7.1809998 4.3599997 8.268 4.3599997C 8.2699995 4.3599997 8.273 4.3599997 8.276 4.3599997L8.276 4.3599997L9 4.3599997C 9.152 4.3599997 9.288 4.2639995 9.339 4.121C 9.731 3.0179996 10.723 2.3599997 11.9939995 2.3599997C 11.995999 2.3599997 11.997 2.3599997 11.999 2.3599997C 13.582 2.363 14.643 3.423 14.64 5L14.64 5L14.64 13.64zM12 6.64C 11.647 6.64 11.36 6.3529997 11.36 6C 11.36 5.6470003 11.647 5.36 12 5.36C 12.353 5.36 12.64 5.647 12.64 6C 12.64 6.353 12.353 6.64 12 6.64zM9 22.86C 9.353 22.86 9.64 23.147001 9.64 23.5C 9.64 23.852999 9.353 24.14 9 24.14C 8.647 24.14 8.36 23.852999 8.36 23.5C 8.36 23.147001 8.647 22.86 9 22.86zM5.64 16C 5.64 16.353 5.3529997 16.64 5 16.64C 4.6470003 16.64 4.36 16.353 4.36 16C 4.36 15.646999 4.647 15.36 5 15.36C 5.353 15.36 5.64 15.647 5.64 16zM8.36 11C 8.36 10.647 8.646999 10.36 9 10.36C 9.353001 10.36 9.64 10.647 9.64 11C 9.64 11.353 9.353 11.64 9 11.64C 8.647 11.64 8.36 11.353 8.36 11zM31.36 15.5C 31.362001 13.454 29.852001 11.591 27.626001 10.813C 28.133001 10.120999 28.670002 9.025 28.672 8.046C 28.674002 6.8149996 28.132 5.6809998 27.146 4.8529997C 26.229 4.0829997 24.983 3.6409998 23.725 3.6389997L23.725 3.6389997L23.245 3.6389997C 22.701 2.4009995 21.481 1.6409997 20.002 1.6389997C 19.999 1.6389997 19.997002 1.6389997 19.994001 1.6389997C 19.022001 1.6389997 18.186 1.9619997 17.576002 2.5719998C 16.965 3.185 16.642 4.023 16.64 5L16.64 5L16.64 25.999C 16.637 27.975 18.018 29.356 19.998999 29.36C 20.001999 29.36 20.003998 29.36 20.005999 29.36C 21.478998 29.36 22.696 28.6 23.244 27.36L23.244 27.36L23.723 27.36C 23.727 27.36 23.73 27.36 23.733 27.36C 25.004 27.36 26.211 26.934 27.131 26.161001C 28.108 25.341002 28.646 24.211 28.648 22.979002C 28.649 21.984001 28.122002 20.881002 27.623001 20.188002C 29.847 19.418 31.357 17.555 31.36 15.5zM20 12.36C 20.353 12.36 20.64 12.646999 20.64 13C 20.64 13.353001 20.352999 13.64 20 13.64C 19.647001 13.64 19.36 13.353001 19.36 13C 19.36 12.646999 19.647 12.36 20 12.36zM26.946 19.64L24.304998 19.64C 24.145998 19.064999 23.623999 18.64 22.998999 18.64C 22.248999 18.64 21.638998 19.25 21.638998 20C 21.638998 20.75 22.248999 21.36 22.998999 21.36C 23.623 21.36 24.145998 20.935001 24.304998 20.36L24.304998 20.36L26.837997 20.36C 27.313997 20.901001 27.928997 22.051 27.926998 22.978C 27.925999 23.994001 27.478998 24.928001 26.666998 25.609001C 25.885998 26.266 24.801998 26.619001 23.723997 26.639002L23.723997 26.639002L23 26.639002C 22.848 26.639002 22.712 26.736002 22.661 26.878002C 22.268 27.982002 21.276 28.639002 20.005999 28.639002C 20.003998 28.639002 20.001999 28.639002 20.001 28.639002C 19.22 28.638002 18.556 28.387001 18.081999 27.914001C 17.608 27.441 17.358 26.78 17.36 26L17.36 26L17.36 17.36L19.639 17.36L19.639 23.694C 19.064 23.853 18.639 24.375 18.639 25C 18.639 25.75 19.249 26.36 19.999 26.36C 20.749 26.36 21.359001 25.75 21.359001 25C 21.359001 24.376 20.934002 23.853 20.359001 23.694L20.359001 23.694L20.359001 17.36L21.998001 17.36C 21.999 17.36 22.000002 17.36 22.001001 17.36C 22.800001 17.36 23.357002 16.801 23.359001 16L23.359001 16L23.359001 15.36L25.693 15.36C 25.852001 15.934999 26.374 16.36 26.999 16.36C 27.749 16.36 28.359001 15.750001 28.359001 15.000001C 28.359001 14.250001 27.749 13.640001 26.999 13.640001C 26.374 13.640001 25.852001 14.0650015 25.693 14.640001L25.693 14.640001L23.36 14.640001L23.36 8.805C 23.935001 8.646 24.36 8.124001 24.36 7.5000005C 24.36 6.7500005 23.75 6.1400003 23 6.1400003C 22.25 6.1400003 21.64 6.7500005 21.64 7.5000005C 21.64 8.124001 22.064999 8.646001 22.64 8.805L22.64 8.805L22.64 16C 22.64 16.401 22.401999 16.641 22.001999 16.641C 22.001 16.641 22.001 16.641 21.999998 16.641L21.999998 16.641L17.359999 16.641L17.359999 5C 17.360998 4.219 17.612 3.5549998 18.085 3.082C 18.481998 2.684 19.018 2.455 19.64 2.389L19.64 2.389L19.64 11.694C 19.064999 11.853001 18.64 12.375 18.64 12.999001C 18.64 13.749001 19.25 14.359 20 14.359C 20.75 14.359 21.36 13.749001 21.36 12.999001C 21.36 12.375001 20.935001 11.853001 20.36 11.694L20.36 11.694L20.36 2.3839998C 21.463001 2.4989998 22.311 3.126 22.66 4.12C 22.711 4.264 22.848 4.3599997 23 4.3599997L23 4.3599997L23.723999 4.3599997C 24.815998 4.3609996 25.894 4.7429996 26.682999 5.4049997C 27.502998 6.094 27.953999 7.0309997 27.952 8.046C 27.951 9.011999 27.237999 10.254999 26.747 10.744999C 26.655 10.835999 26.619999 10.969999 26.653 11.094999C 26.687 11.219999 26.786 11.316999 26.911 11.348999C 29.109 11.915999 30.643 13.622999 30.64 15.499999C 30.638 17.374 29.12 19.07 26.946 19.64zM23.64 20C 23.64 20.353 23.352999 20.64 23 20.64C 22.647001 20.64 22.36 20.352999 22.36 20C 22.36 19.647001 22.647001 19.36 23 19.36C 23.352999 19.36 23.64 19.647 23.64 20zM20 24.36C 20.353 24.36 20.64 24.647001 20.64 25C 20.64 25.352999 20.352999 25.64 20 25.64C 19.647001 25.64 19.36 25.352999 19.36 25C 19.36 24.647001 19.647 24.36 20 24.36zM23 8.14C 22.647 8.14 22.36 7.853 22.36 7.5000005C 22.36 7.147001 22.647 6.86 23 6.86C 23.353 6.86 23.64 7.1470003 23.64 7.5C 23.64 7.8529997 23.353 8.14 23 8.14zM26.36 15C 26.36 14.647 26.647001 14.36 27 14.36C 27.352999 14.36 27.64 14.646999 27.64 15C 27.64 15.353001 27.352999 15.64 27 15.64C 26.647001 15.64 26.36 15.353 26.36 15z" stroke="none" fill="#000000" fill-rule="nonzero" />
    <path d="M0 0L32 0L32 32L0 32z" stroke="none" fill="none" />
</g>
</svg>